static_00
version=1
nRows=16
nColumns=46
inDegrees=yes
endheader
time	ground_force1_vx	ground_force1_vy	ground_force1_vz	ground_force1_px	ground_force1_py	ground_force1_pz	ground_torque1_x	ground_torque1_y	ground_torque1_z	ground_force2_vx	ground_force2_vy	ground_force2_vz	ground_force2_px	ground_force2_py	ground_force2_pz	ground_torque2_x	ground_torque2_y	ground_torque2_z	ground_force3_vx	ground_force3_vy	ground_force3_vz	ground_force3_px	ground_force3_py	ground_force3_pz	ground_torque3_x	ground_torque3_y	ground_torque3_z	ground_force4_vx	ground_force4_vy	ground_force4_vz	ground_force4_px	ground_force4_py	ground_force4_pz	ground_torque4_x	ground_torque4_y	ground_torque4_z	ground_force5_vx	ground_force5_vy	ground_force5_vz	ground_force5_px	ground_force5_py	ground_force5_pz	ground_torque5_x	ground_torque5_y	ground_torque5_z
1.257000	2.000462	8.168612	0.837106	0.223264	0.000000	0.858850	-0.000000	0.033860	0.000000	-0.000000	-0.000000	0.000000	0.200000	0.000000	0.320000	0.000000	0.000000	-0.000000	-0.000000	-0.000000	0.000000	0.200000	0.000000	-0.300000	0.000000	0.000000	-0.000000	-1.137503	821.474243	-2.499206	0.243681	0.000000	-0.920645	0.000020	-0.451430	0.000009	-0.000000	-0.000000	0.000000	0.200000	0.000000	-1.500000	0.000000	0.000000	-0.000000	
1.258000	2.162790	7.219235	0.676571	0.248176	0.000000	0.790173	-0.000000	-0.150921	0.000000	-0.000000	-0.000000	0.000000	0.200000	0.000000	0.320000	0.000000	0.000000	-0.000000	-0.000000	-0.000000	0.000000	0.200000	0.000000	-0.300000	0.000000	0.000000	-0.000000	-0.649741	820.842529	-2.659740	0.243351	0.000000	-0.920674	0.000047	-0.338528	0.000012	-0.000000	-0.000000	0.000000	0.200000	0.000000	-1.500000	0.000000	0.000000	-0.000000	
1.259000	2.000462	9.110279	0.996791	0.207916	0.000000	0.818223	-0.000000	-0.093723	0.000000	-0.000000	-0.000000	0.000000	0.200000	0.000000	0.320000	0.000000	0.000000	-0.000000	-0.000000	-0.000000	0.000000	0.200000	0.000000	-0.300000	0.000000	0.000000	-0.000000	-0.490243	822.122803	-3.143383	0.243388	0.000000	-0.920812	0.000047	-0.437120	0.000003	-0.000000	-0.000000	0.000000	0.200000	0.000000	-1.500000	0.000000	0.000000	-0.000000	
1.260000	2.648914	9.107774	0.355503	0.218183	0.000000	0.800939	-0.000000	-0.153494	0.000000	-0.000000	-0.000000	0.000000	0.200000	0.000000	0.320000	0.000000	0.000000	-0.000000	-0.000000	-0.000000	0.000000	0.200000	0.000000	-0.300000	0.000000	0.000000	-0.000000	-0.491788	819.557251	-2.659740	0.243627	0.000000	-0.920703	0.000053	-0.502707	0.000009	-0.000000	-0.000000	0.000000	0.200000	0.000000	-1.500000	0.000000	0.000000	-0.000000	
1.261000	2.486586	9.425157	0.516037	0.198889	0.000000	0.825908	-0.000000	-0.051841	0.000000	-0.000000	-0.000000	0.000000	0.200000	0.000000	0.320000	0.000000	0.000000	-0.000000	-0.000000	-0.000000	0.000000	0.200000	0.000000	-0.300000	0.000000	0.000000	-0.000000	-0.651286	820.195312	-2.498186	0.243780	0.000000	-0.920675	0.000041	-0.389769	0.000008	-0.000000	-0.000000	0.000000	0.200000	0.000000	-1.500000	0.000000	0.000000	-0.000000	
1.262000	2.970992	7.849771	0.515188	0.222099	0.000000	0.781741	-0.000000	-0.182346	0.000000	-0.000000	-0.000000	0.000000	0.200000	0.000000	0.320000	0.000000	0.000000	-0.000000	-0.000000	-0.000000	0.000000	0.200000	0.000000	-0.300000	0.000000	0.000000	-0.000000	-1.298545	820.202759	-2.823334	0.243348	0.000000	-0.920554	-0.000005	-0.480220	0.000014	-0.000000	-0.000000	0.000000	0.200000	0.000000	-1.500000	0.000000	0.000000	-0.000000	
1.263000	3.137614	8.796412	0.998489	0.217623	0.000000	0.807467	-0.000001	-0.467670	0.000000	-0.000000	-0.000000	0.000000	0.200000	0.000000	0.320000	0.000000	0.000000	-0.000000	-0.000000	-0.000000	0.000000	0.200000	0.000000	-0.300000	0.000000	0.000000	-0.000000	-0.815418	822.126465	-3.144401	0.243181	0.000000	-0.920381	0.000039	-0.534997	0.000021	-0.000000	-0.000000	0.000000	0.200000	0.000000	-1.500000	0.000000	0.000000	-0.000000	
1.264000	2.487445	11.000340	0.516886	0.208243	0.000000	0.799528	-0.000000	-0.148503	0.000000	-0.000000	-0.000000	0.000000	0.200000	0.000000	0.320000	0.000000	0.000000	-0.000000	-0.000000	-0.000000	0.000000	0.200000	0.000000	-0.300000	0.000000	0.000000	-0.000000	-0.813874	821.158081	-3.142364	0.243561	0.000000	-0.921052	0.000041	-0.391346	0.000003	-0.000000	-0.000000	0.000000	0.200000	0.000000	-1.500000	0.000000	0.000000	-0.000000	
1.265000	2.811241	10.372541	0.517735	0.217968	0.000000	0.841031	-0.000001	-0.037420	0.000000	-0.000000	-0.000000	0.000000	0.200000	0.000000	0.320000	0.000000	0.000000	-0.000000	-0.000000	-0.000000	0.000000	0.200000	0.000000	-0.300000	0.000000	0.000000	-0.000000	-1.303177	820.202759	-2.660761	0.243439	0.000000	-0.920833	0.000042	-0.622705	0.000010	-0.000000	-0.000000	0.000000	0.200000	0.000000	-1.500000	0.000000	0.000000	-0.000000	
1.266000	2.486586	11.630352	0.677420	0.202070	0.000000	0.807024	-0.000000	-0.081407	0.000000	-0.000000	-0.000000	0.000000	0.200000	0.000000	0.320000	0.000000	0.000000	-0.000000	-0.000000	-0.000000	0.000000	0.200000	0.000000	-0.300000	0.000000	0.000000	-0.000000	-0.974916	821.159729	-3.467510	0.243659	0.000000	-0.920632	0.000011	-0.457729	0.000013	-0.000000	-0.000000	0.000000	0.200000	0.000000	-1.500000	0.000000	0.000000	-0.000000	
1.267000	2.648914	11.318600	0.516037	0.199724	0.000000	0.819979	-0.000000	-0.115718	0.000000	-0.000000	-0.000000	0.000000	0.200000	0.000000	0.320000	0.000000	0.000000	-0.000000	-0.000000	-0.000000	0.000000	0.200000	0.000000	-0.300000	0.000000	0.000000	-0.000000	-1.134414	820.844482	-2.819256	0.243317	0.000000	-0.920828	0.000026	-0.231700	0.000020	-0.000000	-0.000000	0.000000	0.200000	0.000000	-1.500000	0.000000	0.000000	-0.000000	
1.268000	2.810382	9.739635	0.998489	0.234135	0.000000	0.838834	-0.000000	-0.099972	0.000000	-0.000000	-0.000000	0.000000	0.200000	0.000000	0.320000	0.000000	0.000000	-0.000000	-0.000000	-0.000000	0.000000	0.200000	0.000000	-0.300000	0.000000	0.000000	-0.000000	-1.139048	820.521301	-2.338672	0.243474	0.000000	-0.921170	0.000052	-0.542286	0.000016	-0.000000	-0.000000	0.000000	0.200000	0.000000	-1.500000	0.000000	0.000000	-0.000000	
1.269000	2.487445	10.056034	0.674873	0.241298	0.000000	0.821919	-0.000001	-0.251571	0.000000	-0.000000	-0.000000	0.000000	0.200000	0.000000	0.320000	0.000000	0.000000	-0.000000	-0.000000	-0.000000	0.000000	0.200000	0.000000	-0.300000	0.000000	0.000000	-0.000000	-0.815418	822.121826	-3.143383	0.243469	0.000000	-0.920666	0.000036	-0.495252	0.000006	-0.000000	-0.000000	0.000000	0.200000	0.000000	-1.500000	0.000000	0.000000	-0.000000	
1.270000	2.812100	10.369939	0.355503	0.216733	0.000000	0.803737	-0.000000	-0.261764	0.000000	1.685164	5.026967	-0.183225	0.275076	0.000000	0.532877	0.000000	0.115494	0.000000	-0.000000	-0.000000	0.000000	0.200000	0.000000	-0.300000	0.000000	0.000000	-0.000000	-1.461132	819.881165	-2.819255	0.243694	0.000000	-0.920773	0.000007	-0.353674	0.000011	-0.000000	-0.000000	0.000000	0.200000	0.000000	-1.500000	0.000000	0.000000	-0.000000	
1.271000	2.972710	9.110792	1.159872	0.241952	0.000000	0.792768	-0.000001	-0.277764	0.000000	-0.000000	-0.000000	0.000000	0.200000	0.000000	0.320000	0.000000	0.000000	-0.000000	-0.000000	-0.000000	0.000000	0.200000	0.000000	-0.300000	0.000000	0.000000	-0.000000	-0.490243	821.161987	-3.624986	0.243282	0.000000	-0.921229	0.000058	-0.358609	0.000012	-0.000000	-0.000000	0.000000	0.200000	0.000000	-1.500000	0.000000	0.000000	-0.000000	
1.272000	2.161931	8.799403	0.516886	0.213341	0.000000	0.833388	-0.000000	0.090970	0.000000	-0.000000	-0.000000	0.000000	0.200000	0.000000	0.320000	0.000000	0.000000	-0.000000	-0.000000	-0.000000	0.000000	0.200000	0.000000	-0.300000	0.000000	0.000000	-0.000000	-0.974916	820.523621	-2.980810	0.243293	0.000000	-0.920919	0.000036	-0.344328	0.000017	-0.000000	-0.000000	0.000000	0.200000	0.000000	-1.500000	0.000000	0.000000	-0.000000	
